<?xml version="1.0" standalone="no"?>
<!DOCTYPE svg PUBLIC "-//W3C//DTD SVG 20010904//EN"
 "http://www.w3.org/TR/2001/REC-SVG-20010904/DTD/svg10.dtd">
<svg version="1.0" xmlns="http://www.w3.org/2000/svg"
 width="584.000000pt" height="584.000000pt" viewBox="0 0 584.000000 584.000000"
 preserveAspectRatio="xMidYMid meet">
<metadata>
Created by potrace 1.14, written by Peter Selinger 2001-2017
</metadata>
<g transform="translate(0.000000,584.000000) scale(0.100000,-0.100000)"
fill="#000000" stroke="none">
<path d="M443 3385 l0 -1435 184 0 183 0 2 1121 3 1122 747 -1122 748 -1121
195 0 c149 0 195 3 196 13 1 16 1 2817 0 2840 -1 16 -15 17 -183 15 l-183 -3
0 -1112 c0 -612 -3 -1113 -6 -1113 -3 0 -340 502 -749 1115 l-743 1115 -197 0
-197 0 0 -1435z"/>
<path d="M3323 3385 l0 -1436 641 2 c692 1 769 6 941 54 156 45 268 106 354
195 87 89 174 249 199 365 6 28 15 68 20 90 13 62 6 243 -12 315 -49 190 -182
357 -351 441 -49 25 -106 51 -125 58 l-35 12 44 25 c290 164 417 498 309 809
-36 102 -106 214 -180 285 -88 85 -250 165 -384 189 -32 6 -70 14 -84 18 -14
4 -320 8 -681 10 l-656 4 0 -1436z m1309 1071 c229 -43 349 -203 336 -446 -10
-175 -99 -290 -270 -349 -87 -30 -120 -32 -569 -38 l-426 -5 0 432 0 432 426
-5 c313 -4 447 -10 503 -21z m-7 -1190 c160 -34 141 -29 180 -45 64 -25 99
-48 149 -96 94 -92 139 -213 135 -361 -6 -182 -96 -331 -243 -402 -130 -63
-145 -65 -667 -69 l-476 -5 0 497 0 497 446 -5 c245 -3 460 -8 476 -11z"/>
<path d="M1799 1208 c0 -7 -1 -64 -2 -126 l-2 -112 1168 0 1167 0 0 125 0 125
-1165 0 c-925 0 -1165 -3 -1166 -12z"/>
</g>
</svg>
